# xmcd
#
# Track frame offsets:
#	150
#	23838
#	52608
#	71718
#	98199
#	115339
#	139204
#	168077
#	188535
#	200753
#	226393
#	247646
#	261927
#	282528
#	311699
#	336586
#
# Disc length: 4740 seconds
#
# Revision: 0
# Processed by: cddbd v1.5.2PL0 Copyright (c) Steve Scherf et al.
# Submitted via: dBpowerAMP V4.0
#
DISCID=e5128210
DTITLE=Furry Lewis and Mississippi Joe Callicott - The Complete Blue Horizon Sessions disc 2
DYEAR=2007
DGENRE=Blues
TTITLE0=You don't Know My Mind
TTITLE1=Dough Roller Blues
TTITLE2=War Time Blues
TTITLE3=Joe's Troubled Blues
TTITLE4=On My Last Go Round
TTITLE5=Hoist Your Window and Let Your Curtain Down
TTITLE6=Married Woman Blues
TTITLE7=Poor Boy Blues
TTITLE8=Frankie and Albert - take 1
TTITLE9=Frankie and Albert - take 2
TTITLE10=Leavin' Town Blues
TTITLE11=Going Away Blues
TTITLE12=Worried Now In a Tennesse Town
TTITLE13=Lost My Money In Jim Kinnane's
TTITLE14=Worried Blues
TTITLE15=You Don't Know My Mind
EXTD=
EXTT0=
EXTT1=
EXTT2=
EXTT3=
EXTT4=
EXTT5=
EXTT6=
EXTT7=
EXTT8=
EXTT9=
EXTT10=
EXTT11=
EXTT12=
EXTT13=
EXTT14=
EXTT15=
PLAYORDER=
